<svg xmlns="http://www.w3.org/2000/svg" viewBox="0 0 512 512" role="img" aria-label="Focus OS">
  <rect width="512" height="512" rx="96" fill="#131820"/>
  <rect x="72" y="352" width="368" height="10" rx="5" fill="#2DD4A0" opacity="0.25"/>
  <path
    fill="#2DD4A0"
    d="M132 362h248l10 18H122l10-18z"
  />
  <path
    fill="#2DD4A0"
    d="M152 362V248c0-6 4-11 10-12l148-28c7-1 13 4 13 11v143H152z"
  />
  <path
    fill="#131820"
    d="M168 268h144l-8 72H176l-8-72z"
    opacity="0.35"
  />
  <circle cx="318" cy="168" r="40" fill="#2DD4A0"/>
  <path
    fill="#2DD4A0"
    d="M286 200c-18 18-28 44-34 78-6 34-8 68-8 84h56c0-16 2-46 10-76 8-30 22-52 38-64-10-8-24-14-38-16-4 0-8 2-14-6z"
  />
  <path
    fill="#2DD4A0"
    d="M248 286c-28 8-52 24-68 44l28 32c14-16 34-28 56-32-6-14-10-30-16-44z"
  />
  <path
    fill="#2DD4A0"
    d="M292 278c12 10 24 22 32 38l-36 24c-6-12-14-22-24-30 8-10 18-20 28-32z"
  />
  <ellipse cx="318" cy="176" rx="14" ry="10" fill="#131820" opacity="0.2"/>
</svg>
